<?xml version="1.0" standalone="no"?><!DOCTYPE svg PUBLIC "-//W3C//DTD SVG 1.1//EN" "http://www.w3.org/Graphics/SVG/1.1/DTD/svg11.dtd"><svg t="1647516640769" class="icon" viewBox="0 0 1243 1024" version="1.1" xmlns="http://www.w3.org/2000/svg" p-id="9264" xmlns:xlink="http://www.w3.org/1999/xlink" width="77.6875" height="64"><defs><style type="text/css"></style></defs><path d="M1068.475476 0c15.284674 0 30.496215 2.267105 45.049565 6.581917 77.739751 23.475503 120.668476 101.873447 95.803456 175.005856-24.938152 73.205542-108.235966 113.574632-185.975717 90.172261l-140.926154 193.142694c37.809456 40.66162 47.316669 98.216826 24.206828 147.727468-32.76332 70.353378-120.010284 102.385374-194.824739 71.523496-74.814455-30.861877-108.821026-112.989573-76.057706-183.342951L479.832711 372.975289a153.87059 153.87059 0 0 1-138.805313 41.539209l-95.803457 156.283959c43.806313 35.834881 61.211827 92.439366 44.61077 144.802171-23.402371 73.717469-105.822597 115.549207-184.147408 93.609485-78.251678-22.012855-122.862448-99.606342-99.460077-173.323811 23.402371-73.644337 105.822597-115.549207 184.147408-93.609484l93.316954-152.115412c-51.192687-35.542351-72.474218-97.924297-52.801599-154.894444 25.157549-73.13241 108.601628-113.135838 186.268247-89.367805 77.739751 23.694901 120.229681 102.239109 95.072133 175.298386l160.452506 131.638338a155.260106 155.260106 0 0 1 159.428653-23.109842l136.977004-187.584631a135.587488 135.587488 0 0 1-48.486788-102.970432C920.601744 62.308813 986.859707 0 1068.548609 0zM148.323498 757.505499c23.036709 0 45.122697-8.629624 61.431224-23.914298 16.308527-15.357806 25.450079-36.12741 25.450079-57.774603 0-45.195829-38.906442-81.762034-86.881303-81.762034-47.901728 0-86.80817 36.566205-86.80817 81.688901 0 45.195829 38.83331 81.762034 86.80817 81.762034zM371.523612 360.030853c47.974861 0 86.80817-36.566205 86.808171-81.762034 0-45.122697-38.83331-81.688902-86.808171-81.688902s-86.881303 36.566205-86.881302 81.688902c0 45.195829 38.906442 81.762034 86.881302 81.762034z m399.741752 278.268818c23.036709 0 45.122697-8.556492 61.431224-23.914297 16.308527-15.357806 25.450079-36.12741 25.450078-57.774604 0-45.122697-38.906442-81.762034-86.881302-81.762034-47.974861 0-86.881303 36.566205-86.881303 81.762034 0 45.122697 38.906442 81.688902 86.881303 81.688901z m297.283245-417.512926c23.036709 0 45.122697-8.556492 61.431224-23.914298 16.235395-15.284674 25.376946-35.981146 25.376946-57.555207 0-45.122697-38.760177-81.688902-86.588773-81.762034-47.901728 0-86.80817 36.41994-86.881303 81.542637 0 45.049564 38.760177 81.615769 86.661906 81.688902z m-898.35852 675.012141h1009.080988a63.990858 63.990858 0 1 1 0 128.054849H170.190089a63.990858 63.990858 0 1 1 0-127.981717z" p-id="9265" fill="#8a8a8a"></path></svg>