<?xml version="1.0" standalone="no"?><!DOCTYPE svg PUBLIC "-//W3C//DTD SVG 1.1//EN" "http://www.w3.org/Graphics/SVG/1.1/DTD/svg11.dtd"><svg t="1647446074905" class="icon" viewBox="0 0 1024 1024" version="1.1" xmlns="http://www.w3.org/2000/svg" p-id="3436" xmlns:xlink="http://www.w3.org/1999/xlink" width="64" height="64"><defs><style type="text/css"></style></defs><path d="M318.244571 73.142857c74.971429 0 141.385143 36.278857 182.857143 92.16A226.669714 226.669714 0 0 1 681.325714 73.142857h310.710857c5.266286 0 9.581714 4.242286 9.801143 9.508572v753.371428a9.801143 9.801143 0 0 1-9.508571 9.801143H637.878857c-47.396571 0-86.528 35.620571-92.013714 81.408l-0.146286 1.389714a10.825143 10.825143 0 0 1-10.825143 9.801143h-68.022857a10.752 10.752 0 0 1-10.678857-9.362286l-0.073143-0.365714a92.598857 92.598857 0 0 0-90.697143-82.870857H9.874286a9.801143 9.801143 0 0 1-9.801143-9.508571v-753.371429C0.073143 77.604571 4.315429 73.289143 9.581714 73.142857h308.809143-0.073143z m0 88.649143H88.576v595.382857h275.456c32.621714 0 63.195429 8.630857 89.6 23.698286l1.097143 0.585143 1.901714 1.170285V297.618286a138.24 138.24 0 0 0-133.778286-135.826286h-4.534857z m595.090286 0h-229.668571a138.24 138.24 0 0 0-138.386286 135.826286v485.083428l1.974857-1.170285c25.6-14.701714 54.930286-23.478857 86.381714-24.283429h279.771429V161.792h-0.073143z" p-id="3437" fill="#8a8a8a"></path></svg>